<svg xmlns="http://www.w3.org/2000/svg" xmlns:xlink="http://www.w3.org/1999/xlink" width="500" zoomAndPan="magnify" viewBox="0 0 375 374.999991" height="500" preserveAspectRatio="xMidYMid meet" version="1.0"><defs><clipPath id="id1"><path d="M 161 130 L 357.886719 130 L 357.886719 373 L 161 373 Z M 161 130 " clip-rule="nonzero"/></clipPath><clipPath id="id2"><path d="M 17.386719 215 L 167 215 L 167 375 L 17.386719 375 Z M 17.386719 215 " clip-rule="nonzero"/></clipPath></defs><path fill="rgb(100%, 100%, 100%)" d="M 168.613281 138.195312 L 168.613281 272.6875 L 288.089844 272.6875 L 288.089844 334.09375 C 288.089844 351.203125 301.976562 365.078125 319.101562 365.078125 C 336.226562 365.078125 350.113281 351.203125 350.113281 334.09375 L 350.113281 149.039062 C 350.113281 149.039062 350.113281 143.453125 350.113281 138.199219 L 168.613281 138.199219 Z M 168.613281 138.195312 " fill-opacity="1" fill-rule="nonzero"/><g clip-path="url(#id1)"><path fill="rgb(23.529053%, 23.529053%, 23.529053%)" d="M 319.101562 372.664062 C 297.816406 372.664062 280.5 355.359375 280.5 334.09375 L 280.5 280.273438 L 168.613281 280.273438 C 164.421875 280.273438 161.023438 276.875 161.023438 272.6875 L 161.023438 138.195312 C 161.023438 134.007812 164.421875 130.613281 168.613281 130.613281 L 350.113281 130.613281 C 354.304688 130.613281 357.703125 134.007812 357.703125 138.195312 L 357.703125 334.09375 C 357.703125 355.359375 340.386719 372.664062 319.101562 372.664062 Z M 176.207031 265.101562 L 288.089844 265.101562 C 292.28125 265.101562 295.679688 268.5 295.679688 272.6875 L 295.679688 334.09375 C 295.679688 346.996094 306.1875 357.492188 319.101562 357.492188 C 332.015625 357.492188 342.523438 346.996094 342.523438 334.09375 L 342.523438 145.78125 L 176.207031 145.78125 Z M 176.207031 265.101562 " fill-opacity="1" fill-rule="nonzero"/></g><path fill="rgb(100%, 100%, 100%)" d="M 274.773438 355.808594 C 274.640625 355.8125 274.503906 355.820312 274.367188 355.820312 L 274.773438 355.820312 Z M 274.773438 355.808594 " fill-opacity="1" fill-rule="nonzero"/><path fill="rgb(23.529053%, 23.529053%, 23.529053%)" d="M 274.773438 356.578125 L 274.367188 356.578125 L 274.367188 355.820312 L 274.015625 355.808594 L 274.367188 355.808594 L 274.367188 355.0625 L 275.535156 355.039062 L 275.535156 356.570312 Z M 274.773438 356.578125 " fill-opacity="1" fill-rule="nonzero"/><path fill="rgb(100%, 100%, 100%)" d="M 146.078125 7.890625 L 72.800781 46.914062 C 72.800781 46.914062 92.527344 68.902344 88.289062 75.957031 C 84.050781 83.011719 55.351562 75.957031 55.351562 75.957031 L 55.351562 158.925781 C 55.351562 158.925781 84.050781 151.871094 88.289062 158.925781 C 92.527344 165.976562 72.800781 187.96875 72.800781 187.96875 L 146.078125 226.992188 C 146.078125 226.992188 151.414062 205.644531 157.460938 205.644531 C 163.515625 205.644531 168.847656 226.988281 168.847656 226.988281 L 242.128906 187.96875 C 242.128906 187.96875 222.398438 165.976562 226.636719 158.925781 C 230.875 151.871094 259.574219 158.925781 259.574219 158.925781 L 259.574219 75.957031 C 259.574219 75.957031 230.875 83.007812 226.636719 75.957031 C 222.398438 68.902344 242.128906 46.914062 242.128906 46.914062 L 168.847656 7.890625 C 168.847656 7.890625 163.515625 29.234375 157.460938 29.234375 C 151.410156 29.234375 146.078125 7.890625 146.078125 7.890625 Z M 146.078125 7.890625 " fill-opacity="1" fill-rule="nonzero"/><path fill="rgb(23.529053%, 23.529053%, 23.529053%)" d="M 168.847656 234.570312 C 167.796875 234.570312 166.746094 234.355469 165.761719 233.917969 C 163.625 232.96875 162.046875 231.089844 161.480469 228.824219 C 160.433594 224.644531 158.894531 220.179688 157.464844 216.925781 C 156.035156 220.183594 154.492188 224.644531 153.445312 228.832031 C 152.875 231.09375 151.292969 232.972656 149.160156 233.917969 C 147.023438 234.867188 144.570312 234.78125 142.507812 233.683594 L 69.230469 194.660156 C 67.171875 193.566406 65.734375 191.585938 65.328125 189.292969 C 64.917969 186.996094 65.589844 184.644531 67.144531 182.90625 C 73.214844 176.132812 78.898438 167.894531 80.703125 163.507812 C 79.984375 163.429688 79.054688 163.375 77.867188 163.375 C 69.167969 163.375 57.28125 166.261719 57.164062 166.289062 C 54.898438 166.84375 52.503906 166.328125 50.667969 164.890625 C 48.835938 163.453125 47.761719 161.253906 47.761719 158.921875 L 47.761719 75.957031 C 47.761719 73.625 48.835938 71.425781 50.667969 69.988281 C 52.503906 68.550781 54.902344 68.03125 57.164062 68.589844 C 57.28125 68.621094 69.167969 71.507812 77.867188 71.507812 C 79.050781 71.507812 79.984375 71.449219 80.703125 71.371094 C 78.898438 66.988281 73.214844 58.746094 67.144531 51.972656 C 65.589844 50.238281 64.917969 47.882812 65.324219 45.589844 C 65.730469 43.292969 67.167969 41.3125 69.226562 40.21875 L 142.507812 1.195312 C 144.570312 0.0976562 147.023438 0.0117188 149.160156 0.960938 C 151.296875 1.910156 152.875 3.789062 153.441406 6.054688 C 154.492188 10.234375 156.03125 14.699219 157.460938 17.953125 C 158.890625 14.699219 160.429688 10.234375 161.480469 6.050781 C 162.046875 3.785156 163.628906 1.910156 165.765625 0.960938 C 167.898438 0.015625 170.351562 0.101562 172.414062 1.199219 L 245.695312 40.21875 C 247.753906 41.316406 249.191406 43.296875 249.597656 45.589844 C 250.007812 47.882812 249.335938 50.238281 247.78125 51.972656 C 241.710938 58.75 236.027344 66.988281 234.222656 71.371094 C 234.941406 71.449219 235.871094 71.507812 237.058594 71.507812 C 244.308594 71.507812 254.460938 69.402344 257.757812 68.589844 C 260.027344 68.035156 262.421875 68.550781 264.257812 69.988281 C 266.089844 71.425781 267.164062 73.625 267.164062 75.957031 L 267.164062 158.921875 C 267.164062 161.253906 266.089844 163.453125 264.257812 164.890625 C 262.421875 166.328125 260.027344 166.84375 257.765625 166.289062 C 257.644531 166.261719 245.757812 163.375 237.058594 163.375 C 235.875 163.375 234.941406 163.429688 234.222656 163.507812 C 236.03125 167.894531 241.714844 176.132812 247.78125 182.90625 C 249.335938 184.640625 250.007812 186.996094 249.601562 189.289062 C 249.195312 191.582031 247.753906 193.566406 245.695312 194.660156 L 172.414062 233.683594 C 171.304688 234.273438 170.074219 234.570312 168.847656 234.570312 Z M 84.640625 185.675781 L 141.441406 215.921875 C 147.71875 198.058594 154.882812 198.058594 157.460938 198.058594 C 160.042969 198.058594 167.207031 198.058594 173.484375 215.921875 L 230.285156 185.675781 C 221.953125 175.027344 215.382812 162.917969 220.128906 155.019531 C 224.222656 148.203125 233.886719 148.203125 237.058594 148.203125 C 241.972656 148.203125 247.460938 148.898438 251.984375 149.660156 L 251.984375 85.21875 C 247.453125 85.980469 241.957031 86.621094 237.023438 86.675781 C 233.8125 86.675781 224.210938 86.648438 220.128906 79.855469 C 215.386719 71.960938 221.957031 59.851562 230.289062 49.203125 L 173.488281 18.957031 C 167.210938 36.820312 160.046875 36.820312 157.464844 36.820312 C 154.886719 36.820312 147.722656 36.820312 141.445312 18.957031 L 84.640625 49.203125 C 92.976562 59.851562 99.542969 71.960938 94.800781 79.859375 C 90.707031 86.675781 81.046875 86.675781 77.871094 86.675781 C 72.957031 86.675781 67.46875 85.980469 62.945312 85.21875 L 62.945312 149.660156 C 67.46875 148.902344 72.957031 148.203125 77.871094 148.203125 C 81.046875 148.203125 90.707031 148.203125 94.800781 155.019531 C 99.542969 162.917969 92.972656 175.027344 84.640625 185.675781 Z M 84.640625 185.675781 " fill-opacity="1" fill-rule="nonzero"/><path fill="rgb(100%, 100%, 100%)" d="M 196.65625 117.4375 C 196.65625 118.722656 196.59375 120 196.46875 121.277344 C 196.339844 122.554688 196.152344 123.820312 195.902344 125.078125 C 195.652344 126.335938 195.339844 127.578125 194.96875 128.808594 C 194.597656 130.035156 194.164062 131.238281 193.671875 132.425781 C 193.183594 133.609375 192.632812 134.769531 192.027344 135.898438 C 191.421875 137.03125 190.765625 138.128906 190.050781 139.195312 C 189.339844 140.261719 188.574219 141.289062 187.761719 142.28125 C 186.945312 143.273438 186.085938 144.222656 185.175781 145.128906 C 184.269531 146.035156 183.320312 146.898438 182.328125 147.710938 C 181.335938 148.523438 180.304688 149.285156 179.238281 150 C 178.171875 150.710938 177.070312 151.371094 175.9375 151.976562 C 174.808594 152.578125 173.648438 153.128906 172.460938 153.617188 C 171.277344 154.109375 170.070312 154.539062 168.839844 154.914062 C 167.613281 155.285156 166.371094 155.597656 165.109375 155.847656 C 163.851562 156.097656 162.582031 156.285156 161.304688 156.410156 C 160.027344 156.535156 158.746094 156.597656 157.464844 156.597656 C 156.179688 156.597656 154.898438 156.535156 153.621094 156.410156 C 152.34375 156.285156 151.078125 156.097656 149.816406 155.847656 C 148.558594 155.597656 147.316406 155.285156 146.085938 154.914062 C 144.859375 154.539062 143.652344 154.109375 142.464844 153.617188 C 141.28125 153.128906 140.121094 152.578125 138.988281 151.976562 C 137.855469 151.371094 136.757812 150.710938 135.691406 150 C 134.625 149.285156 133.59375 148.523438 132.601562 147.710938 C 131.609375 146.898438 130.660156 146.035156 129.75 145.128906 C 128.84375 144.222656 127.984375 143.273438 127.167969 142.28125 C 126.355469 141.289062 125.589844 140.261719 124.878906 139.195312 C 124.164062 138.128906 123.503906 137.03125 122.898438 135.898438 C 122.296875 134.769531 121.746094 133.609375 121.253906 132.425781 C 120.765625 131.238281 120.332031 130.035156 119.960938 128.808594 C 119.585938 127.578125 119.277344 126.335938 119.027344 125.078125 C 118.773438 123.820312 118.585938 122.554688 118.460938 121.277344 C 118.335938 120 118.273438 118.722656 118.273438 117.4375 C 118.273438 116.15625 118.335938 114.878906 118.460938 113.601562 C 118.585938 112.324219 118.773438 111.058594 119.023438 109.800781 C 119.277344 108.542969 119.585938 107.300781 119.960938 106.070312 C 120.332031 104.84375 120.765625 103.636719 121.253906 102.453125 C 121.746094 101.269531 122.296875 100.109375 122.898438 98.980469 C 123.503906 97.847656 124.164062 96.75 124.878906 95.683594 C 125.589844 94.617188 126.355469 93.589844 127.167969 92.597656 C 127.984375 91.605469 128.84375 90.65625 129.75 89.75 C 130.660156 88.84375 131.609375 87.980469 132.601562 87.167969 C 133.59375 86.355469 134.625 85.59375 135.691406 84.878906 C 136.757812 84.167969 137.855469 83.507812 138.988281 82.902344 C 140.121094 82.300781 141.28125 81.75 142.464844 81.261719 C 143.652344 80.769531 144.859375 80.339844 146.085938 79.964844 C 147.316406 79.59375 148.558594 79.28125 149.816406 79.03125 C 151.078125 78.78125 152.34375 78.59375 153.621094 78.46875 C 154.898438 78.34375 156.179688 78.28125 157.464844 78.28125 C 158.746094 78.28125 160.027344 78.34375 161.304688 78.46875 C 162.582031 78.59375 163.851562 78.78125 165.109375 79.03125 C 166.371094 79.28125 167.613281 79.59375 168.839844 79.964844 C 170.070312 80.339844 171.277344 80.769531 172.460938 81.261719 C 173.648438 81.75 174.808594 82.300781 175.9375 82.902344 C 177.070312 83.507812 178.171875 84.167969 179.238281 84.878906 C 180.304688 85.59375 181.335938 86.355469 182.328125 87.167969 C 183.320312 87.980469 184.269531 88.84375 185.175781 89.75 C 186.085938 90.65625 186.945312 91.605469 187.761719 92.597656 C 188.574219 93.589844 189.339844 94.617188 190.050781 95.683594 C 190.765625 96.75 191.421875 97.847656 192.027344 98.980469 C 192.632812 100.109375 193.183594 101.269531 193.671875 102.453125 C 194.164062 103.636719 194.597656 104.84375 194.96875 106.070312 C 195.339844 107.300781 195.652344 108.542969 195.902344 109.800781 C 196.152344 111.058594 196.339844 112.324219 196.46875 113.601562 C 196.59375 114.878906 196.65625 116.15625 196.65625 117.4375 Z M 196.65625 117.4375 " fill-opacity="1" fill-rule="nonzero"/><path fill="rgb(23.529053%, 23.529053%, 23.529053%)" d="M 157.464844 164.183594 C 131.667969 164.183594 110.679688 143.214844 110.679688 117.441406 C 110.679688 91.664062 131.667969 70.695312 157.464844 70.695312 C 183.261719 70.695312 204.246094 91.664062 204.246094 117.441406 C 204.246094 143.214844 183.257812 164.183594 157.464844 164.183594 Z M 157.464844 85.863281 C 140.039062 85.863281 125.863281 100.03125 125.863281 117.441406 C 125.863281 134.851562 140.039062 149.015625 157.464844 149.015625 C 174.890625 149.015625 189.066406 134.851562 189.066406 117.441406 C 189.066406 100.027344 174.890625 85.863281 157.464844 85.863281 Z M 157.464844 85.863281 " fill-opacity="1" fill-rule="nonzero"/><path fill="rgb(100%, 100%, 100%)" d="M 84.863281 223.304688 L 36.765625 248.917969 C 36.765625 248.917969 49.710938 263.347656 46.929688 267.980469 C 44.148438 272.609375 25.3125 267.980469 25.3125 267.980469 L 25.3125 322.433594 C 25.3125 322.433594 44.148438 317.804688 46.929688 322.433594 C 49.710938 327.066406 36.765625 341.496094 36.765625 341.496094 L 84.863281 367.109375 C 84.863281 367.109375 88.363281 353.097656 92.332031 353.097656 C 96.304688 353.097656 99.804688 367.109375 99.804688 367.109375 L 147.902344 341.496094 C 147.902344 341.496094 134.953125 327.066406 137.734375 322.433594 C 140.519531 317.804688 159.355469 322.433594 159.355469 322.433594 L 159.355469 267.980469 C 159.355469 267.980469 140.519531 272.609375 137.734375 267.980469 C 134.953125 263.347656 147.902344 248.917969 147.902344 248.917969 L 99.804688 223.304688 C 99.804688 223.304688 96.304688 237.3125 92.332031 237.3125 C 88.363281 237.3125 84.863281 223.304688 84.863281 223.304688 Z M 84.863281 223.304688 " fill-opacity="1" fill-rule="nonzero"/><g clip-path="url(#id2)"><path fill="rgb(23.529053%, 23.529053%, 23.529053%)" d="M 99.804688 374.695312 C 98.757812 374.695312 97.707031 374.476562 96.722656 374.042969 C 94.585938 373.09375 93.011719 371.214844 92.441406 368.953125 C 92.40625 368.8125 92.371094 368.671875 92.335938 368.53125 C 92.296875 368.671875 92.261719 368.8125 92.226562 368.945312 C 91.660156 371.214844 90.082031 373.089844 87.945312 374.042969 C 85.8125 374.992188 83.355469 374.902344 81.292969 373.804688 L 33.195312 348.191406 C 31.136719 347.097656 29.695312 345.117188 29.289062 342.820312 C 28.882812 340.527344 29.554688 338.171875 31.113281 336.4375 C 33.492188 333.777344 35.867188 330.644531 37.527344 328.078125 C 33.441406 328.414062 28.832031 329.382812 27.125 329.800781 C 24.863281 330.355469 22.464844 329.84375 20.628906 328.40625 C 18.792969 326.96875 17.71875 324.769531 17.71875 322.4375 L 17.71875 267.980469 C 17.71875 265.652344 18.792969 263.449219 20.628906 262.011719 C 22.464844 260.574219 24.863281 260.0625 27.125 260.617188 C 28.835938 261.035156 33.453125 262.003906 37.523438 262.339844 C 35.863281 259.773438 33.492188 256.644531 31.109375 253.980469 C 29.554688 252.242188 28.882812 249.886719 29.292969 247.59375 C 29.699219 245.300781 31.136719 243.320312 33.191406 242.226562 L 81.289062 216.613281 C 83.355469 215.515625 85.808594 215.425781 87.945312 216.378906 C 90.078125 217.324219 91.660156 219.203125 92.226562 221.472656 C 92.261719 221.609375 92.296875 221.75 92.332031 221.886719 C 92.367188 221.746094 92.40625 221.609375 92.4375 221.46875 C 93.003906 219.203125 94.585938 217.324219 96.71875 216.378906 C 98.855469 215.429688 101.308594 215.515625 103.371094 216.613281 L 151.46875 242.226562 C 153.527344 243.320312 154.964844 245.300781 155.375 247.597656 C 155.78125 249.894531 155.109375 252.246094 153.550781 253.980469 C 151.167969 256.644531 148.796875 259.773438 147.140625 262.335938 C 151.210938 262.003906 155.824219 261.035156 157.542969 260.617188 C 159.804688 260.0625 162.203125 260.578125 164.035156 262.015625 C 165.871094 263.453125 166.941406 265.652344 166.941406 267.980469 L 166.941406 322.4375 C 166.941406 324.769531 165.871094 326.96875 164.035156 328.40625 C 162.199219 329.847656 159.800781 330.363281 157.539062 329.804688 C 155.824219 329.382812 151.210938 328.414062 147.140625 328.082031 C 148.796875 330.644531 151.171875 333.777344 153.554688 336.441406 C 155.109375 338.175781 155.777344 340.53125 155.371094 342.824219 C 154.964844 345.117188 153.527344 347.097656 151.46875 348.191406 L 103.375 373.804688 C 102.261719 374.394531 101.035156 374.695312 99.804688 374.695312 Z M 92.332031 345.515625 C 94.328125 345.515625 99.636719 345.515625 104.203125 356.171875 L 136.207031 339.128906 C 126.746094 325.992188 130.03125 320.523438 131.226562 318.53125 C 134.675781 312.792969 142.128906 312.792969 144.574219 312.792969 C 146.90625 312.792969 149.417969 313.019531 151.761719 313.328125 L 151.761719 277.085938 C 149.40625 277.398438 146.921875 277.621094 144.542969 277.621094 C 142.0625 277.621094 134.660156 277.597656 131.226562 271.882812 C 130.03125 269.890625 126.742188 264.425781 136.207031 251.285156 L 104.203125 234.242188 C 99.636719 244.898438 94.328125 244.898438 92.332031 244.898438 C 90.339844 244.898438 85.03125 244.898438 80.464844 234.246094 L 48.457031 251.285156 C 57.921875 264.425781 54.636719 269.890625 53.441406 271.882812 C 49.992188 277.621094 42.539062 277.621094 40.089844 277.621094 C 37.757812 277.621094 35.25 277.398438 32.90625 277.085938 L 32.90625 313.328125 C 35.25 313.019531 37.761719 312.792969 40.089844 312.792969 C 42.539062 312.792969 49.992188 312.792969 53.441406 318.53125 C 54.636719 320.523438 57.921875 325.992188 48.457031 339.128906 L 80.464844 356.171875 C 85.03125 345.515625 90.339844 345.515625 92.332031 345.515625 Z M 92.332031 345.515625 " fill-opacity="1" fill-rule="nonzero"/></g><path fill="rgb(100%, 100%, 100%)" d="M 125.503906 295.207031 C 125.503906 296.292969 125.453125 297.375 125.34375 298.457031 C 125.238281 299.535156 125.078125 300.609375 124.867188 301.671875 C 124.65625 302.738281 124.390625 303.789062 124.078125 304.828125 C 123.761719 305.867188 123.394531 306.886719 122.980469 307.890625 C 122.566406 308.894531 122.101562 309.875 121.589844 310.832031 C 121.078125 311.789062 120.519531 312.71875 119.914062 313.621094 C 119.3125 314.523438 118.664062 315.394531 117.976562 316.234375 C 117.285156 317.074219 116.558594 317.875 115.789062 318.644531 C 115.023438 319.410156 114.21875 320.140625 113.378906 320.828125 C 112.539062 321.515625 111.667969 322.164062 110.761719 322.765625 C 109.859375 323.367188 108.929688 323.925781 107.972656 324.4375 C 107.011719 324.949219 106.03125 325.414062 105.027344 325.828125 C 104.023438 326.242188 103.003906 326.609375 101.964844 326.925781 C 100.925781 327.238281 99.871094 327.503906 98.804688 327.714844 C 97.742188 327.925781 96.667969 328.085938 95.585938 328.191406 C 94.503906 328.296875 93.421875 328.351562 92.335938 328.351562 C 91.25 328.351562 90.164062 328.296875 89.082031 328.191406 C 88.003906 328.085938 86.929688 327.925781 85.863281 327.714844 C 84.796875 327.503906 83.746094 327.238281 82.707031 326.925781 C 81.667969 326.609375 80.644531 326.242188 79.640625 325.828125 C 78.636719 325.414062 77.65625 324.949219 76.699219 324.4375 C 75.738281 323.925781 74.808594 323.367188 73.90625 322.765625 C 73.003906 322.164062 72.132812 321.515625 71.292969 320.828125 C 70.453125 320.140625 69.648438 319.410156 68.878906 318.644531 C 68.109375 317.875 67.382812 317.074219 66.695312 316.234375 C 66.003906 315.394531 65.359375 314.523438 64.753906 313.621094 C 64.152344 312.71875 63.59375 311.789062 63.082031 310.832031 C 62.570312 309.875 62.105469 308.894531 61.6875 307.890625 C 61.273438 306.886719 60.90625 305.867188 60.59375 304.828125 C 60.277344 303.789062 60.011719 302.738281 59.800781 301.671875 C 59.589844 300.609375 59.429688 299.535156 59.324219 298.457031 C 59.21875 297.375 59.164062 296.292969 59.164062 295.207031 C 59.164062 294.121094 59.21875 293.039062 59.324219 291.960938 C 59.429688 290.878906 59.589844 289.804688 59.800781 288.742188 C 60.011719 287.675781 60.277344 286.625 60.59375 285.585938 C 60.90625 284.546875 61.273438 283.527344 61.6875 282.523438 C 62.105469 281.523438 62.570312 280.542969 63.082031 279.585938 C 63.59375 278.625 64.152344 277.695312 64.753906 276.792969 C 65.359375 275.890625 66.003906 275.019531 66.695312 274.183594 C 67.382812 273.34375 68.109375 272.539062 68.878906 271.773438 C 69.648438 271.003906 70.453125 270.277344 71.292969 269.585938 C 72.132812 268.898438 73.003906 268.253906 73.90625 267.648438 C 74.808594 267.046875 75.738281 266.488281 76.699219 265.976562 C 77.65625 265.464844 78.636719 265.003906 79.640625 264.585938 C 80.644531 264.171875 81.667969 263.808594 82.707031 263.492188 C 83.746094 263.175781 84.796875 262.914062 85.863281 262.703125 C 86.929688 262.488281 88.003906 262.332031 89.082031 262.222656 C 90.164062 262.117188 91.25 262.066406 92.335938 262.066406 C 93.421875 262.066406 94.503906 262.117188 95.585938 262.222656 C 96.667969 262.332031 97.742188 262.488281 98.804688 262.703125 C 99.871094 262.914062 100.925781 263.175781 101.964844 263.492188 C 103.003906 263.808594 104.023438 264.171875 105.027344 264.585938 C 106.03125 265.003906 107.011719 265.464844 107.972656 265.976562 C 108.929688 266.488281 109.859375 267.046875 110.761719 267.648438 C 111.667969 268.253906 112.539062 268.898438 113.378906 269.585938 C 114.21875 270.277344 115.023438 271.003906 115.789062 271.773438 C 116.558594 272.539062 117.285156 273.34375 117.976562 274.183594 C 118.664062 275.019531 119.3125 275.890625 119.914062 276.792969 C 120.519531 277.695312 121.078125 278.625 121.589844 279.585938 C 122.101562 280.542969 122.566406 281.523438 122.980469 282.523438 C 123.394531 283.527344 123.761719 284.546875 124.078125 285.585938 C 124.390625 286.625 124.65625 287.675781 124.867188 288.742188 C 125.078125 289.804688 125.238281 290.878906 125.34375 291.960938 C 125.453125 293.039062 125.503906 294.121094 125.503906 295.207031 Z M 125.503906 295.207031 " fill-opacity="1" fill-rule="nonzero"/><path fill="rgb(23.529053%, 23.529053%, 23.529053%)" d="M 92.335938 335.933594 C 69.859375 335.933594 51.570312 317.664062 51.570312 295.207031 C 51.570312 272.75 69.855469 254.480469 92.335938 254.480469 C 114.808594 254.480469 133.09375 272.75 133.09375 295.207031 C 133.09375 317.664062 114.8125 335.933594 92.335938 335.933594 Z M 92.335938 269.648438 C 78.230469 269.648438 66.753906 281.113281 66.753906 295.207031 C 66.753906 309.300781 78.230469 320.765625 92.335938 320.765625 C 106.4375 320.765625 117.914062 309.300781 117.914062 295.207031 C 117.914062 281.113281 106.4375 269.648438 92.335938 269.648438 Z M 92.335938 269.648438 " fill-opacity="1" fill-rule="nonzero"/><path fill="rgb(100%, 100%, 100%)" d="M 288.089844 334.09375 L 288.089844 222.894531 C 288.089844 222.894531 288.089844 205.171875 288.089844 188.386719 L 120.335938 188.386719 L 120.335938 365.078125 L 314.574219 365.078125 C 315.070312 365.078125 315.558594 365.027344 316.03125 364.925781 C 300.34375 363.382812 288.089844 350.171875 288.089844 334.09375 Z M 288.089844 334.09375 " fill-opacity="1" fill-rule="nonzero"/><path fill="rgb(23.529053%, 23.529053%, 23.529053%)" d="M 314.570312 372.664062 L 120.335938 372.664062 C 116.140625 372.664062 112.742188 369.265625 112.742188 365.078125 L 112.742188 188.386719 C 112.742188 184.199219 116.140625 180.800781 120.335938 180.800781 L 288.089844 180.800781 C 292.28125 180.800781 295.679688 184.199219 295.679688 188.386719 L 295.679688 334.09375 C 295.679688 346.183594 304.75 356.195312 316.773438 357.375 C 320.496094 357.742188 323.394531 360.757812 323.609375 364.488281 C 323.824219 368.21875 321.289062 371.546875 317.636719 372.335938 C 316.640625 372.554688 315.609375 372.664062 314.570312 372.664062 Z M 127.925781 357.492188 L 288.351562 357.492188 C 283.402344 350.992188 280.5 342.875 280.5 334.09375 L 280.5 195.972656 L 127.925781 195.972656 Z M 127.925781 357.492188 " fill-opacity="1" fill-rule="nonzero"/><path fill="rgb(23.529053%, 23.529053%, 23.529053%)" d="M 245.859375 330.859375 L 192.136719 330.859375 C 187.945312 330.859375 184.546875 327.464844 184.546875 323.273438 C 184.546875 319.085938 187.945312 315.691406 192.136719 315.691406 L 245.859375 315.691406 C 250.050781 315.691406 253.449219 319.085938 253.449219 323.273438 C 253.449219 327.464844 250.050781 330.859375 245.859375 330.859375 Z M 245.859375 330.859375 " fill-opacity="1" fill-rule="nonzero"/><path fill="rgb(23.529053%, 23.529053%, 23.529053%)" d="M 169.0625 330.859375 L 159.355469 330.859375 C 155.164062 330.859375 151.761719 327.464844 151.761719 323.273438 C 151.761719 319.085938 155.164062 315.691406 159.355469 315.691406 L 169.0625 315.691406 C 173.253906 315.691406 176.65625 319.085938 176.65625 323.273438 C 176.65625 327.464844 173.253906 330.859375 169.0625 330.859375 Z M 169.0625 330.859375 " fill-opacity="1" fill-rule="nonzero"/><path fill="rgb(23.529053%, 23.529053%, 23.529053%)" d="M 245.859375 237.796875 L 192.136719 237.796875 C 187.945312 237.796875 184.546875 234.398438 184.546875 230.210938 C 184.546875 226.023438 187.945312 222.625 192.136719 222.625 L 245.859375 222.625 C 250.050781 222.625 253.449219 226.023438 253.449219 230.210938 C 253.449219 234.398438 250.050781 237.796875 245.859375 237.796875 Z M 245.859375 237.796875 " fill-opacity="1" fill-rule="nonzero"/><path fill="rgb(23.529053%, 23.529053%, 23.529053%)" d="M 169.0625 237.796875 L 159.355469 237.796875 C 155.164062 237.796875 151.761719 234.398438 151.761719 230.210938 C 151.761719 226.023438 155.164062 222.625 159.355469 222.625 L 169.0625 222.625 C 173.253906 222.625 176.65625 226.023438 176.65625 230.210938 C 176.65625 234.398438 173.253906 237.796875 169.0625 237.796875 Z M 169.0625 237.796875 " fill-opacity="1" fill-rule="nonzero"/><path fill="rgb(23.529053%, 23.529053%, 23.529053%)" d="M 213.074219 286.433594 L 159.355469 286.433594 C 155.164062 286.433594 151.761719 283.035156 151.761719 278.847656 C 151.761719 274.660156 155.164062 271.261719 159.355469 271.261719 L 213.074219 271.261719 C 217.269531 271.261719 220.667969 274.660156 220.667969 278.847656 C 220.667969 283.035156 217.269531 286.433594 213.074219 286.433594 Z M 213.074219 286.433594 " fill-opacity="1" fill-rule="nonzero"/><path fill="rgb(23.529053%, 23.529053%, 23.529053%)" d="M 245.859375 286.433594 L 236.148438 286.433594 C 231.957031 286.433594 228.558594 283.035156 228.558594 278.847656 C 228.558594 274.660156 231.957031 271.261719 236.148438 271.261719 L 245.859375 271.261719 C 250.050781 271.261719 253.449219 274.660156 253.449219 278.847656 C 253.449219 283.035156 250.050781 286.433594 245.859375 286.433594 Z M 245.859375 286.433594 " fill-opacity="1" fill-rule="nonzero"/></svg>